# xmcd CD database file
#
# Track frame offsets:
#	150
#	19110
#	38995
#
# Disc length: 772 seconds
#
# Revision: 0
# Processed by: cddbd v1.5PL3 Copyright (c) Steve Scherf et al.
# Submitted via: CDex 1.40Release
#
DISCID=1c030203
DTITLE=篠原ともえ - チャイム
DYEAR=1995
DGENRE=Pop
TTITLE0=チャイム
TTITLE1=アルファベットでＢ．Ａ．Ｓ．Ｓ．
TTITLE2=チャイム（オリジナル・カラオケ）
EXTD=YEAR: 1995 ID3G: 13
EXTT0=
EXTT1=
EXTT2=
PLAYORDER=
